<?xml version="1.0" encoding="UTF-8"?>
<!DOCTYPE svg  PUBLIC '-//W3C//DTD SVG 1.1//EN'  'http://www.w3.org/Graphics/SVG/1.1/DTD/svg11.dtd'>
<svg enable-background="new 0 0 844.2312 1356.3588" version="1.1" viewBox="0 0 844.2312 1356.3588" xml:space="preserve" xmlns="http://www.w3.org/2000/svg">
	<path d="m194.14 968.13c-3.6575 2.2936-6.7479 4.429-10.015 6.2477-20.848 11.607-42.52 21.312-66.01 26.065-15.272 3.0905-30.81 3.722-45.851-1.3807-22.287-7.5614-35.991-23.206-39.19-46.491-5.0833-36.998 4.5423-70.585 27.285-99.989 13.852-17.909 31.953-28.893 55.436-30.572 23.22-1.6602 43.081 3.8121 57.974 22.619 3.8283 4.8342 6.9793 10.15 8.86 16.094 0.6253 1.9763 2.7186 4.1672-0.7097 5.7898-5.0935 2.411-7.7943 2.0825-9.6764-1.5974-2.5123-4.9122-5.4598-9.4915-9.1461-13.626-17.21-19.304-45.728-21.427-68.913-8.1497-17.948 10.278-28.577 26.304-36.553 44.647-6.8374 15.726-10.426 32.289-10.249 49.273 0.1372 13.168 1.1823 26.698 10.837 37.39 11.52 12.758 26.591 15.326 42.454 13.454 21.169-2.4973 40.563-10.979 59.751-19.839 10.437-4.8191 20.249-10.718 30.15-16.494 2.2777-1.3289 3.0912-2.7437 3.1872-5.4274 0.8123-22.704 4.4014-45.133 6.9524-67.666 0.2522-2.2281 1.3008-3.3159 3.5443-3.2332 0.3327 0.0123 0.6668 0.0039 0.9998-0.0085 17.067-0.6393 17.728 0.0568 15.274 17.949-2.1613 15.757-4.1693 31.5-5.013 47.419-1.658 31.284 1.6005 61.857 11.146 91.754 7.3737 23.095 20.15 42.948 36.463 60.542 16.125 17.391 34.594 31.958 55.459 43.387 34.928 19.134 72.507 30.009 111.65 36.168 25.641 4.0345 51.394 6.4427 77.353 5.6028 15.568-0.5037 31.132-2.2214 46.388-5.079 29.702-5.5635 59.039-12.808 86.219-26.672 37.436-19.094 67.949-46.142 92.464-80.234 18.614-25.887 32.057-54.254 41.91-84.422 8.4005-25.721 14.576-51.95 18.286-78.799 3.6527-26.432 4.026-52.966 3.7925-79.553-0.0232-2.6504-0.2567-5.3036-0.4978-7.946-0.244-2.675 0.7957-3.7328 3.5553-4.1865 6.4219-1.0564 8.3842-1.2693 9.16 6.5309 1.3296 13.365 2.3146 26.728 3.2363 40.123 0.9072 13.186-0.0072 26.252-0.7559 39.283-1.3121 22.843-5.8163 45.231-11.252 67.508-8.408 34.457-20.492 67.252-39.153 97.55-29.105 47.256-68.378 83.252-118.44 107.25-18.788 9.0072-39.021 14.07-58.954 19.725-21.412 6.0741-43.502 8.5558-65.679 10.18-19.11 1.3995-38.223 1.267-57.301-0.0818-46.236-3.2687-90.82-13.17-133.04-32.963-25.871-12.127-48.936-28.146-69.416-47.875-28.016-26.99-47.384-59.122-56.49-97.194-4.1265-17.25-6.5442-34.727-7.4803-53.078z"/>
	<path d="m622.18 897.08c-20.295 0-40.616 0.6183-60.877-0.2128-13.965-0.5729-27.921-0.2112-41.877-0.8572-23.211-1.0743-46.426-1.8809-69.623-3.4128-21.015-1.3881-41.996-3.0099-62.915-5.3734-39.397-4.4513-78.585-10.082-116.61-21.882-12.863-3.9921-23.997-11.434-35.248-18.424-7.9314-4.9276-7.5387-21.671-0.1688-27.811 10.196-8.4952 22.423-12.898 34.804-16.673 34.224-10.435 69.406-16.082 104.87-20.168 23.057-2.656 46.176-4.5073 69.333-6.0916 32.134-2.1985 64.245-4.4302 96.482-4.4388 15.957-0.0042 31.924-1.2694 47.87-0.9943 27.074 0.4672 54.166 1.1743 81.195 2.7448 35.398 2.057 70.692 5.4536 105.28 13.831 1.7623 0.4269 5.304-0.6914 4.6621 3.3608-0.7056 4.4534-4.5386 8.4688-7.532 8.0868-17.274-2.2045-34.601-3.6422-52-4.6442-23.297-1.3417-46.601-0.2048-69.869-1.0917-10.972-0.4182-21.948-0.9017-32.887-0.4961-17.121 0.635-34.249 0.4174-51.36 1.0123-22.065 0.7671-44.138 1.5348-66.175 2.8409-28.635 1.6971-57.273 3.5383-85.849 6.0122-43.592 3.774-87.099 8.4135-129.93 17.814-11.199 2.458-22.193 5.6934-32.881 9.8973-2.9971 1.179-8.1796 1.687-7.8238 4.7623 0.4365 3.7726 4.381 6.9927 8.549 8.2247 10.642 3.146 21.296 6.2432 32.242 8.2815 26.082 4.8571 52.262 8.8486 78.717 11.174 16.522 1.4526 33.05 2.6981 49.595 3.825 22.688 1.5453 45.388 2.5525 68.117 3.3153 16.122 0.5414 32.242 0.673 48.36 1.0701 48.303 1.1898 96.609 0.4409 144.91 0.4183 24.259-0.0114 48.531-0.9761 72.767-2.1416 6.8397-0.3291 9.8179 2.467 12.13 8.1094 3.862 9.4253 3.4803 10.212-6.6597 11.152-23.265 2.1569-46.51 4.399-69.878 5.4094-19.909 0.861-39.784 2.508-59.729 3.3695z"/>
	<path d="m595.87 65.878c-36.195 1.5552-70.626 9.5511-101.67 29.093-11.068 6.9675-20.429 15.774-26.238 27.96-4.4553 9.3468-1.6366 20.12 5.1483 27.564 10.938 12 25.321 18.718 39.626 25.39 26.17 12.206 53.516 22.027 78.093 37.45 14.909 9.3559 28.728 20.105 39.389 34.583 10.937 14.854 11.211 30.172 3.0383 45.837-9.1034 17.449-23.985 29.628-39.924 40.359-26.62 17.923-54.549 33.654-83.163 48.18-27.867 14.146-55.544 28.641-80.888 47.114-4.9739 3.6255-9.6457 7.6615-13.274 12.723-6.2561 8.7261-4.6274 14.366 5.0233 19.406 18.328 9.573 38.281 14.015 58.137 18.733 22.734 5.4016 45.625 10.111 67.802 17.712 13.968 4.7879 26.938 11.122 38.465 20.456 9.3256 7.5515 13.099 22.7 8.4998 35.646-4.7944 13.495-14.02 23.979-23.218 34.501-13.221 15.123-27.788 29.078-38.894 46.041-3.4304 5.239-5.9738 10.708-7.9293 16.51-2.7662 8.2068-0.2643 15.679 6.6412 21.251 10.566 8.5252 23.396 11.517 36.087 14.862 0.4809 0.1266 1.0474 0.0497 1.4658 0.2717 2.4657 1.308 7.1359 0.1445 7.3384 3.4551 0.2758 4.5125-2.9042 8.2941-6.1201 11.538-0.6333 0.6388-1.4143 0.6296-2.2985 0.3077-15.09-5.4946-30.722-9.6732-43.741-19.869-10.716-8.3932-16.884-25.076-11.986-39.301 5.4815-15.92 15.172-28.973 26.038-41.402 12.799-14.64 27.679-27.383 39.292-43.1 1.379-1.8663 2.5825-3.8625 3.8633-5.8012 6.3442-9.6027 3.9955-17.536-6.0573-24.656-15.156-10.734-32.984-15.46-50.598-20.291-26.72-7.3291-53.868-13.056-80.165-21.994-13.131-4.4631-24.704-11.485-35.452-19.898-9.8283-7.6925-11.172-23.358-3.3765-34.872 7.5973-11.222 18.378-19.088 29.248-26.775 22.046-15.589 45.969-27.952 69.792-40.493 28.073-14.779 56.662-28.622 83.545-45.582 10.439-6.5861 20.057-14.179 28.603-23.143 13.498-14.158 13.306-28.404-0.2038-42.487-13.777-14.361-30.153-24.993-47.74-33.78-20.804-10.394-42.026-19.95-62.868-30.27-11.153-5.5217-22.234-11.381-31.578-19.818-10.422-9.4104-18.721-20.32-20.661-34.676-1.2152-8.9906 1.5157-17.498 6.0135-25.227 10.805-18.569 27.598-30.216 46.496-39.232 16.891-8.0583 34.767-13.416 53.15-16.188 28.275-4.2635 56.581-5.2521 83.811 6.1819 8.6257 3.6221 16.993 7.8201 23.433 14.806 13.88 15.056 11.496 33.449-2.0657 48.131-11.238 12.166-25.917 17.633-41.824 20.266-11.886 1.9677-23.785 2.0602-35.553-0.9614-5.8638-1.5057-11.329-4.0885-15.75-8.1765-7.0986-6.5641-6.5427-17.068 0.9865-24.355 1.9025-1.8412 4.014-3.4896 6.1517-5.0602 4.9455-3.6337 6.3228-3.2834 10.19 1.5515 1.8174 2.2719 1.5283 3.4978-0.8917 5.0144-3.239 2.03-6.196 4.5172-8.5017 7.6239-3.7513 5.0544-2.9465 8.0698 2.9088 10.274 14.279 5.3741 28.735 4.1604 43.084 0.5029 12.087-3.0807 23.141-8.2583 31.782-17.698 3.4496-3.7686 5.956-8.1246 6.9505-13.011 1.3096-6.434-1.4666-11.662-6.3488-15.841-11.432-9.784-25.332-13.449-39.682-15.948-7.0656-1.2305-14.21-1.3662-21.436-1.3906z"/>
	<path d="m722.03 1250.2c-25.132-11.775-51.495-14.617-77.966-16.964-10.718-0.95-21.421-2.1013-32.156-2.7855-3.2638-0.2079-3.5768-1.7324-3.1972-4.0955 0.7686-4.7841 2.2889-9.3129 4.6807-13.574 0.8882-1.5824 1.9931-2.1003 3.6218-1.953 27.067 2.4478 54.166 4.7461 80.397 12.501 11.166 3.3008 22.338 6.8566 30.995 15.19 11.4 10.973 8.6753 24.376-5.3699 31.934-18.958 10.202-39.74 13.695-60.377 17.741-27.977 5.4844-56.295 8.5638-84.675 11.165-20.972 1.9226-41.976 3.1556-62.998 4.3591-28.764 1.6466-57.536 1.8307-86.31 1.48-22.74-0.2771-45.533-0.3756-68.157-3.0834-26.335-3.152-52.678-6.4922-77.754-15.847-10.983-4.097-21.003-9.6957-29.414-18.173-9.0823-9.1538-12.178-23.498-3.7128-37.217 10.84-17.57 27.59-27.397 45.544-35.716 11.468-5.3138 23.633-8.771 35.596-12.766 4.4406-1.4829 5.5235 1.5487 6.9264 4.3593 3.2186 6.4482 2.8902 7.4188-3.5935 10.149-17.288 7.28-34.797 14.095-50.352 24.891-8.1263 5.6399-15.41 12.073-20.937 20.406-3.8248 5.7666-3.3661 11.406 1.8519 15.917 5.5329 4.7827 12.274 7.2054 19.114 9.2898 18.659 5.686 37.905 8.0127 57.24 9.7866 27.656 2.5371 55.388 3.7274 83.133 2.9531 18.464-0.5151 36.938-0.1409 55.384-0.9603 25.695-1.1415 51.391-2.3549 77.061-3.9478 31.431-1.9507 62.873-4.1394 94.101-8.202 20.794-2.7053 41.901-4.2551 61.852-11.68 3.2574-1.2122 6.4176-2.4748 9.4701-5.1574z"/>
	<path d="m726.88 835.64c-6.8936-2.6278-14.498-1.7336-21.786-1.973-20.796-0.6827-41.657-0.9188-62.441-0.0737-24.134 0.9814-48.261 0.0764-72.38 0.8966-29.227 0.994-58.459 1.8207-87.685 2.8503-15.756 0.5553-31.504 1.3667-47.254 2.1102-1.9716 0.093-3.9329 0.4526-5.8929 0.7316-3.551 0.5051-5.8624-0.3307-6.9866-4.3394-1.8363-6.548-2.0813-6.4567 4.8613-7.6509 29.593-5.0903 59.405-8.1295 89.369-9.9504 14.925-0.9072 29.861-1.4685 44.788-2.2129 14.634-0.7299 29.273-0.3103 43.873-1.027 22.619-1.11 45.216-0.1787 67.77 0.6235 28.141 1.001 56.328 2.8171 83.661 10.676 1.4294 0.4111 2.9265 0.7693 4.2048 1.4862 2.7695 1.5533 6.6384 2.175 6.6317 6.4883-0.0077 4.9609-3.2542 9.6262-7.8049 11.046-8.4259 2.6285-17.179 3.7111-25.891 4.6799-21.094 2.3461-42.258 3.9161-63.429 5.465-17.537 1.283-35.102 1.8702-52.633 3.1082-2.851 0.2014-4.7925-0.5184-5.799-3.385-1.3751-3.9166-2.8516-7.7675-2.8314-12.031 0.0098-2.0648 0.5751-2.8734 2.8185-2.9802 12.59-0.5985 25.164-1.5823 37.757-2.0516 25.742-0.9597 51.493-1.6759 77.078-2.487z"/>
</svg>
