<?xml version="1.0" encoding="UTF-8"?>
<svg viewBox="0 0 533.33 533.33" xmlns="http://www.w3.org/2000/svg">
 <g fill="none">
  <path d="m260.91 55.476c-15.199 0.55954-32.249 5.6533-41.344 16.562-13.229 28.188 18.908 15.173 22.688 34.688 3.7798 19.515-18.906 20.594-18.906 20.594h-97.75v99.156c-0.2722 3.1296-2.5349 21.218-20.438 17.75-19.515-3.7798-6.4998-35.886-34.688-22.656-9.207 7.6759-14.275 20.979-15.969 34.094-0.026459 0.20482-0.068939 0.42032-0.09375 0.625-0.9667 4.612-1.4566 9.889-1.25 15.5 0.55954 15.199 5.6533 32.249 16.562 41.344 28.188 13.229 15.173-18.908 34.688-22.688 19.515-3.7798 20.594 18.906 20.594 18.906l0.5938 97.719 98.094-0.78125s22.686-1.0792 18.906-20.594c-3.7798-19.515-35.886-6.4998-22.656-34.688 9.0951-10.909 26.113-16.003 41.312-16.562 5.611-0.20657 10.888 0.2833 15.5 1.25 0.20468 0.024811 0.42017 0.067291 0.625 0.09375 13.114 1.6939 26.449 6.7618 34.125 15.969 13.229 28.188-18.908 15.173-22.688 34.688-3.7798 19.515 18.906 20.594 18.906 20.594l97.188 0.0312v-102.09c1.3864-6.3521 5.8027-17.456 19.938-14.719 19.515 3.7798 6.4998 35.917 34.688 22.688 9.2069-7.6759 14.275-21.011 15.969-34.125 0.026459-0.20483 0.068939-0.38907 0.09375-0.59375 0.96668-4.6121 1.4566-9.889 1.25-15.5-0.55954-15.199-5.6533-32.249-16.562-41.344-28.188-13.229-15.173 18.908-34.688 22.688-19.515 3.7798-20.594-18.906-20.594-18.906l-0.0938-97.844h-102.16c-6.4056-1.4819-16.964-5.9919-14.281-19.844 3.7798-19.515 35.886-6.4998 22.656-34.688-7.676-9.2069-20.979-14.275-34.094-15.969-0.20483-0.026451-0.42032-0.068939-0.625-0.09375-4.6121-0.9667-9.889-1.4566-15.5-1.25z" fill-opacity=".5" stroke-width="3.585"/>
  <path d="m243.94 40.625c-15.199 0.55954-32.249 5.6533-41.344 16.562-13.229 28.188 18.908 15.173 22.688 34.688 3.7798 19.515-18.906 20.594-18.906 20.594h-97.75v99.156c-0.2722 3.1296-2.5349 21.218-20.438 17.75-19.515-3.7798-6.4998-35.886-34.688-22.656-9.207 7.6759-14.275 20.979-15.969 34.094-0.026459 0.20482-0.068939 0.4203-0.09375 0.625-0.9667 4.612-1.4566 9.889-1.25 15.5 0.55954 15.199 5.6533 32.249 16.562 41.344 28.188 13.229 15.173-18.908 34.688-22.688 19.515-3.7798 20.594 18.906 20.594 18.906l0.5938 97.719 98.094-0.78125s22.686-1.0792 18.906-20.594c-3.7798-19.515-35.886-6.4998-22.656-34.688 9.0951-10.909 26.113-16.003 41.312-16.562 5.611-0.20657 10.888 0.2833 15.5 1.25 0.20468 0.024811 0.42017 0.067291 0.625 0.09375 13.114 1.6939 26.449 6.7618 34.125 15.969 13.229 28.188-18.908 15.173-22.688 34.688-3.7798 19.515 18.906 20.594 18.906 20.594l97.188 0.0312v-102.09c1.3864-6.3521 5.8027-17.456 19.938-14.719 19.515 3.7798 6.4998 35.917 34.688 22.688 9.2069-7.6759 14.275-21.011 15.969-34.125 0.026459-0.20483 0.068939-0.38907 0.09375-0.59375 0.96668-4.6121 1.4566-9.889 1.25-15.5-0.55954-15.199-5.6533-32.249-16.562-41.344-28.188-13.229-15.173 18.908-34.688 22.688-19.515 3.7798-20.594-18.906-20.594-18.906l-0.0938-97.844h-102.16c-6.4056-1.4819-16.964-5.9919-14.281-19.844 3.7798-19.515 35.886-6.4998 22.656-34.688-7.676-9.2069-20.979-14.275-34.094-15.969-0.20483-0.026451-0.42032-0.068939-0.625-0.09375-4.612-0.9667-9.889-1.4566-15.5-1.25z" stroke="#000" stroke-linejoin="round" stroke-width="12.5"/>
 </g>
</svg>
